<?xml version="1.0" encoding="utf-8"?>
<!-- Generator: Adobe Illustrator 21.1.0, SVG Export Plug-In . SVG Version: 6.00 Build 0)  -->
<svg version="1.1" id="Layer_1" xmlns="http://www.w3.org/2000/svg" xmlns:xlink="http://www.w3.org/1999/xlink" x="0px" y="0px"
	 viewBox="0 0 377 87" style="enable-background:new 0 0 377 87;" xml:space="preserve">
<style type="text/css">
	.st0{fill:#EA1013;}
	.st1{fill:#FFFFFF;}
</style>
<rect x="-0.5" y="-0.5" class="st0" width="377.5" height="88"/>
<g>
	<path class="st1" d="M39.5,58.7c0.8-0.1,1.2-0.2,1.4-0.4c0.2-0.2,0.3-0.4,0.3-0.7V35.4H30.9c-0.3,0-0.6,0.1-0.7,0.3
		c-0.2,0.2-0.3,0.7-0.4,1.3h-0.7V26.5h0.7c0.1,0.7,0.2,1.1,0.4,1.3c0.2,0.2,0.4,0.3,0.7,0.3h29.3c0.3,0,0.6-0.1,0.7-0.3
		c0.2-0.2,0.3-0.7,0.4-1.3H62v10.6h-0.7c-0.1-0.7-0.2-1.1-0.4-1.3c-0.2-0.2-0.4-0.3-0.7-0.3H50v22.2c0,0.3,0.1,0.5,0.3,0.7
		c0.2,0.2,0.6,0.3,1.4,0.4v0.7H39.5V58.7z"/>
	<path class="st1" d="M103.5,57.6c0,0.3,0.1,0.5,0.3,0.7c0.2,0.2,0.6,0.3,1.4,0.4v0.7H92.9v-0.7c0.8-0.1,1.2-0.2,1.4-0.4
		c0.2-0.2,0.3-0.4,0.3-0.7v-11H79.1v11c0,0.3,0.1,0.5,0.3,0.7c0.2,0.2,0.6,0.3,1.4,0.4v0.7H68.6v-0.7c0.8-0.1,1.2-0.2,1.4-0.4
		c0.2-0.2,0.3-0.4,0.3-0.7V29.9c0-0.3-0.1-0.5-0.3-0.7c-0.2-0.2-0.6-0.3-1.4-0.4v-0.7h12.2v0.7c-0.8,0.1-1.2,0.2-1.4,0.4
		c-0.2,0.2-0.3,0.4-0.3,0.7v9.4h15.4v-9.4c0-0.3-0.1-0.5-0.3-0.7c-0.2-0.2-0.6-0.3-1.4-0.4v-0.7h12.2v0.7c-0.8,0.1-1.2,0.2-1.4,0.4
		c-0.2,0.2-0.3,0.4-0.3,0.7V57.6z"/>
	<path class="st1" d="M138.2,48c-0.1-0.4-0.2-0.7-0.5-1c-0.3-0.3-0.7-0.4-1.3-0.4h-11v5.5h19.1c0.3,0,0.6-0.1,0.7-0.3
		c0.2-0.2,0.3-0.7,0.4-1.5h0.7v10.2h-0.7c-0.1-0.5-0.2-0.8-0.4-1c-0.2-0.1-0.4-0.2-0.7-0.2h-29.6v-0.7c0.8-0.1,1.2-0.2,1.4-0.4
		c0.2-0.2,0.3-0.4,0.3-0.7V29.9c0-0.3-0.1-0.5-0.3-0.7c-0.2-0.2-0.6-0.3-1.4-0.4v-0.7h29.6c0.3,0,0.6-0.1,0.7-0.3s0.3-0.7,0.4-1.3
		h0.7v10.3h-0.7c-0.1-0.7-0.2-1.1-0.4-1.3c-0.2-0.2-0.4-0.3-0.7-0.3h-19.1v4.9h11c0.6,0,1-0.1,1.3-0.4c0.3-0.3,0.4-0.6,0.5-1h0.7V48
		H138.2z"/>
	<path class="st1" d="M200.9,39.3c0-0.1,0.1-0.2,0.1-0.4c0-0.1,0-0.3,0-0.5c0-0.3-0.3-0.6-0.8-1c-0.5-0.3-1.2-0.6-2.1-0.9
		c-0.9-0.3-1.9-0.5-3.1-0.7c-1.1-0.2-2.4-0.3-3.6-0.3c-1.2,0-2.4,0.1-3.7,0.4c-1.3,0.3-2.5,0.7-3.6,1.4c-1.1,0.6-2,1.5-2.7,2.5
		c-0.7,1-1,2.3-1,3.8c0,1.5,0.3,2.8,1,3.8c0.7,1.1,1.6,1.9,2.7,2.5c1.1,0.6,2.3,1.1,3.6,1.4c1.3,0.3,2.6,0.4,3.7,0.4
		c0.5,0,1.3-0.1,2.4-0.3c1.1-0.2,2.2-0.4,3.3-0.7c1.1-0.3,2.1-0.7,2.9-1.1c0.9-0.4,1.3-0.8,1.3-1.2c0-0.2,0-0.4-0.1-0.5
		c-0.1-0.1-0.2-0.3-0.2-0.4l0.7-0.4l6.1,9.3l-0.7,0.4c-0.1-0.2-0.2-0.3-0.3-0.4c-0.1-0.1-0.3-0.1-0.5-0.1c-0.3,0-0.8,0.2-1.7,0.5
		c-0.8,0.3-1.9,0.7-3.2,1.1c-1.3,0.4-2.9,0.7-4.7,1c-1.8,0.3-3.8,0.4-6,0.4c-2.4,0-4.7-0.3-7.1-0.9c-2.3-0.6-4.4-1.6-6.3-2.9
		c-1.9-1.3-3.4-3-4.5-5c-1.1-2-1.7-4.3-1.7-7c0-2.7,0.6-5,1.7-7c1.1-2,2.7-3.7,4.5-5c1.9-1.3,4-2.3,6.3-3s4.7-1,7.1-1
		s4.4,0.1,6.1,0.4c1.7,0.3,3.2,0.5,4.4,0.9c1.1,0.3,2,0.6,2.7,0.8c0.6,0.2,1.1,0.3,1.4,0.3c0.4,0,0.7-0.2,0.9-0.5l0.7,0.2l-5.3,9.8
		L200.9,39.3z"/>
	<path class="st1" d="M225.9,57.6c0,0.3,0.1,0.5,0.3,0.7c0.2,0.2,0.6,0.3,1.4,0.4v0.7h-12.2v-0.7c0.8-0.1,1.2-0.2,1.4-0.4
		c0.2-0.2,0.3-0.4,0.3-0.7V29.9c0-0.3-0.1-0.5-0.3-0.7c-0.2-0.2-0.6-0.3-1.4-0.4v-0.7h21.7c4.4,0,7.6,0.8,9.6,2.4c2,1.6,3,4.1,3,7.5
		c0,2.7-0.8,4.9-2.4,6.4c-1.6,1.5-3.6,2.7-6.1,3.3l7,9.9c0.5,0.7,1,1.1,1.7,1.1v0.7h-12.4v-0.7c0.9,0,1.3-0.4,1.3-1.1
		c0-0.1-0.2-0.4-0.5-0.8c-0.3-0.5-0.7-1-1.2-1.7c-0.5-0.7-1-1.4-1.6-2.2c-0.6-0.8-1.1-1.5-1.7-2.2c-0.5-0.7-1-1.3-1.4-1.9
		c-0.4-0.6-0.7-0.9-0.8-1.1h-5.8V57.6z M235.9,41.3c1.7,0,2.9-0.3,3.6-1c0.7-0.7,1-1.4,1-2.3s-0.3-1.6-1-2.3c-0.7-0.7-1.9-1-3.6-1
		h-10v6.5H235.9z"/>
	<path class="st1" d="M281.6,48c-0.1-0.4-0.2-0.7-0.5-1c-0.3-0.3-0.7-0.4-1.3-0.4h-11v5.5h19.1c0.3,0,0.6-0.1,0.7-0.3
		c0.2-0.2,0.3-0.7,0.4-1.5h0.7v10.2h-0.7c-0.1-0.5-0.2-0.8-0.4-1c-0.2-0.1-0.4-0.2-0.7-0.2h-29.6v-0.7c0.8-0.1,1.2-0.2,1.4-0.4
		c0.2-0.2,0.3-0.4,0.3-0.7V29.9c0-0.3-0.1-0.5-0.3-0.7c-0.2-0.2-0.6-0.3-1.4-0.4v-0.7h29.6c0.3,0,0.6-0.1,0.7-0.3
		c0.2-0.2,0.3-0.7,0.4-1.3h0.7v10.3h-0.7c-0.1-0.7-0.2-1.1-0.4-1.3c-0.2-0.2-0.4-0.3-0.7-0.3h-19.1v4.9h11c0.6,0,1-0.1,1.3-0.4
		c0.3-0.3,0.4-0.6,0.5-1h0.7V48H281.6z"/>
	<path class="st1" d="M303.4,58.7c0.3-0.1,0.6-0.2,0.8-0.3c0.2-0.1,0.4-0.3,0.4-0.7c0-0.1-0.1-0.5-0.4-1.3c-0.3-0.8-0.6-1.8-1-3.1
		c-0.4-1.3-0.9-2.8-1.5-4.4c-0.5-1.6-1.1-3.3-1.7-5c-0.6-1.7-1.1-3.4-1.7-5c-0.6-1.7-1-3.2-1.5-4.5c-0.4-1.3-0.8-2.4-1.1-3.3
		c-0.3-0.9-0.4-1.4-0.5-1.5c-0.1-0.4-0.3-0.7-0.6-0.7v-0.7h10.9v0.7c-0.4,0.1-0.7,0.2-0.9,0.3c-0.2,0.1-0.4,0.3-0.4,0.6
		c0,0.1,0.1,0.5,0.3,1.2c0.2,0.7,0.5,1.6,0.9,2.7c0.4,1.1,0.8,2.3,1.2,3.7c0.4,1.3,0.9,2.7,1.3,4c0.4,1.3,0.8,2.6,1.2,3.8
		c0.4,1.2,0.7,2.2,0.9,3h0.1c0.2-0.8,0.5-1.7,0.9-2.9c0.4-1.2,0.7-2.4,1.2-3.7c0.4-1.3,0.8-2.7,1.2-4c0.4-1.3,0.8-2.6,1.1-3.7
		c0.3-1.1,0.6-2,0.8-2.8c0.2-0.7,0.3-1.2,0.3-1.3c0-0.3-0.1-0.5-0.4-0.6c-0.3-0.1-0.6-0.2-0.8-0.3v-0.7h14.1v0.7
		c-0.3,0.1-0.5,0.2-0.7,0.3c-0.2,0.1-0.3,0.3-0.3,0.6c0,0,0.1,0.4,0.3,1.2c0.2,0.8,0.5,1.7,0.8,2.9c0.3,1.1,0.7,2.4,1.1,3.8
		c0.4,1.4,0.8,2.8,1.1,4.1c0.4,1.3,0.7,2.6,1,3.7c0.3,1.1,0.6,2,0.7,2.7h0.1c0.1-0.5,0.3-1.2,0.7-2.3c0.3-1,0.7-2.2,1.2-3.5
		c0.4-1.3,0.9-2.7,1.3-4.1c0.5-1.4,0.9-2.7,1.3-3.9c0.4-1.2,0.7-2.2,1-3c0.3-0.8,0.4-1.3,0.4-1.4c0-0.4-0.1-0.6-0.4-0.7
		c-0.3-0.1-0.5-0.2-0.9-0.3v-0.7h10v0.7c-0.3,0-0.5,0.2-0.7,0.4c-0.1,0.2-0.2,0.5-0.3,0.8c0,0.1-0.2,0.6-0.5,1.5
		c-0.3,0.9-0.6,1.9-1.1,3.2c-0.4,1.3-0.9,2.8-1.5,4.4c-0.6,1.6-1.1,3.3-1.7,5c-0.6,1.7-1.2,3.3-1.7,5c-0.5,1.6-1,3.1-1.5,4.4
		c-0.4,1.3-0.8,2.3-1,3.1c-0.3,0.8-0.4,1.3-0.4,1.3c0,0.4,0.1,0.6,0.4,0.7c0.3,0.1,0.5,0.1,0.8,0.2v0.7h-12.4v-0.7
		c0.8-0.1,1.2-0.4,1.2-0.8c0-0.5-0.2-1.5-0.6-2.9s-0.9-3.2-1.5-5.2c-0.6-2-1.2-4.1-1.8-6.3c-0.7-2.2-1.3-4.3-1.8-6.3h-0.1
		c-0.5,1.7-1.1,3.8-1.8,6c-0.7,2.3-1.4,4.5-2.1,6.6c-0.7,2.1-1.2,3.9-1.7,5.5s-0.7,2.5-0.7,2.7c0,0.6,0.4,0.8,1.3,0.8v0.7h-12.8
		V58.7z"/>
</g>
</svg>
